<svg width="24px" height="24px" viewBox="0 0 24 24" version="1.1" xmlns="http://www.w3.org/2000/svg" xmlns:xlink="http://www.w3.org/1999/xlink">
    <!-- Generator: Sketch 46.1 (44463) - http://www.bohemiancoding.com/sketch -->
    <desc>Created with Sketch.</desc>
    <defs></defs>
    <g id="Header" stroke="none" stroke-width="1" fill="none" fill-rule="evenodd">
        <g id="Dashboard-(Open-dropdown-navs)" transform="translate(-1103.000000, -153.000000)" fill-rule="nonzero" fill="#9EA3A3">
            <g id="Header-User-Dropdown-Copy" transform="translate(1077.000000, 55.000000)">
                <g id="settings-icon" transform="translate(26.000000, 98.000000)">
                    <path d="M22.7574113,9.47478914 L21.073904,9.18919415 C20.8985386,8.62301461 20.6730689,8.07687683 20.3974948,7.55579123 L21.3895616,6.16789979 C21.8104384,5.57666806 21.7453027,4.76998747 21.2292276,4.25892276 L19.7361169,2.76581211 C19.4555324,2.48522756 19.0847599,2.32990397 18.6889353,2.32990397 C18.3782881,2.32990397 18.0826722,2.4251023 17.8321503,2.60547808 L16.4392484,3.59754489 C15.8981211,3.3119499 15.3319415,3.07645929 14.7457203,2.90109395 L14.4651357,1.23762839 C14.3448852,0.521135699 13.7286013,5.01043842e-05 13.0020877,5.01043842e-05 L10.8926931,5.01043842e-05 C10.1661795,5.01043842e-05 9.54989562,0.521135699 9.42964509,1.23762839 L9.13903967,2.94117745 C8.57787056,3.1165428 8.03173278,3.34702296 7.51064718,3.62760752 L6.13277662,2.63554071 C5.8822547,2.45516493 5.58162839,2.3599666 5.27098121,2.3599666 C4.87515658,2.3599666 4.4993737,2.51529019 4.22379958,2.79587474 L2.7256785,4.28898539 C2.21461378,4.8000501 2.14446764,5.60673069 2.56534447,6.19796242 L3.56743215,7.60589562 C3.29185804,8.13199165 3.07139875,8.67812944 2.90104384,9.24430898 L1.23757829,9.52489353 C0.521085595,9.64514405 0,10.261428 0,10.9879415 L0,13.0973361 C0,13.8238497 0.521085595,14.4401336 1.23757829,14.5603841 L2.94112735,14.8509896 C3.11649269,15.4121587 3.34697286,15.9582965 3.62755741,16.479382 L2.64050104,17.8522422 C2.21962422,18.4434739 2.28475992,19.2501545 2.80083507,19.7612192 L4.29394572,21.2543299 C4.57453027,21.5349144 4.94530271,21.690238 5.34112735,21.690238 C5.65177453,21.690238 5.9473904,21.5950397 6.19791232,21.4146639 L7.60584551,20.4125762 C8.11189979,20.6781294 8.64300626,20.8935783 9.18914405,21.0639332 L9.4697286,22.7474405 C9.58997912,23.4639332 10.206263,23.9850188 10.9327766,23.9850188 L13.0471816,23.9850188 C13.7736952,23.9850188 14.3899791,23.4639332 14.5102296,22.7474405 L14.7958246,21.0639332 C15.3620042,20.8885678 15.908142,20.6630981 16.4292276,20.387524 L17.817119,21.3795908 C18.0676409,21.5599666 18.3682672,21.6551649 18.6789144,21.6551649 L18.6789144,21.6551649 C19.074739,21.6551649 19.4455115,21.4998413 19.726096,21.2192568 L21.2192067,19.7261461 C21.7302714,19.2150814 21.8004175,18.4084008 21.3795407,17.8171691 L20.3874739,16.4242672 C20.663048,15.8981712 20.8935282,15.3520334 21.0638831,14.7908643 L22.7473904,14.5102797 C23.4638831,14.3900292 23.9849687,13.7737453 23.9849687,13.0472317 L23.9849687,10.9378372 C23.9949896,10.2113236 23.473904,9.59503967 22.7574113,9.47478914 Z M22.4212441,13.0740191 C22.4212441,13.1374723 22.3773149,13.1911634 22.3138617,13.2009255 L20.263835,13.5425966 C20.0051411,13.5865257 19.8001385,13.7768854 19.7366853,14.0258172 C19.5512067,14.7433265 19.2681077,15.4315498 18.8873885,16.0709629 C18.755601,16.2954896 18.7653631,16.5737076 18.9166746,16.7884723 L20.1222855,18.4870658 C20.1564526,18.535876 20.1515716,18.6090912 20.1076425,18.6530204 L18.6530997,20.1075632 C18.6189326,20.1417303 18.5847655,20.1466113 18.5603604,20.1466113 C18.5310743,20.1466113 18.5066692,20.1368493 18.4871452,20.1222062 L16.7934326,18.9165953 C16.5835489,18.7652838 16.30045,18.7555217 16.0759232,18.8873092 C15.4365101,19.2680284 14.7482869,19.5511273 14.0307775,19.7366059 C13.7769647,19.8000592 13.5866051,20.0099428 13.5475569,20.2637557 L13.2010048,22.3137824 C13.1912428,22.3772356 13.1375516,22.4211648 13.0740984,22.4211648 L11.0191906,22.4211648 C10.9557374,22.4211648 10.9020462,22.3772356 10.8922842,22.3137824 L10.5506131,20.2637557 C10.5066839,20.0050618 10.3163243,19.8000592 10.0673925,19.7366059 C9.36940719,19.5560084 8.69582698,19.2777904 8.06617591,18.9165953 C7.96367457,18.8580231 7.84653019,18.828737 7.73426682,18.828737 C7.60247938,18.828737 7.46581094,18.8677851 7.35354757,18.9507624 L5.64519195,20.1661354 C5.62078687,20.1807784 5.59638179,20.1905404 5.57197671,20.1905404 C5.55245265,20.1905404 5.51340452,20.1856594 5.47923741,20.1514923 L4.02469463,18.6969495 C3.98076548,18.6530204 3.97588447,18.5846862 4.01005158,18.530995 L5.21078152,16.8470445 C5.36209302,16.6322797 5.37185505,16.3491808 5.24006762,16.1246541 C4.85934837,15.490122 4.56648741,14.8018987 4.3810088,14.0843894 C4.31267457,13.8354576 4.1076719,13.6450979 3.85385906,13.6011688 L1.78918928,13.2497356 C1.72573607,13.2399736 1.68180692,13.1862824 1.68180692,13.1228292 L1.68180692,11.0679215 C1.68180692,11.0044682 1.72573607,10.9507771 1.78918928,10.941015 L3.82457297,10.5993439 C4.08326682,10.5554148 4.29315051,10.3650551 4.35660372,10.1112423 C4.53720131,9.39373295 4.81541922,8.70062868 5.19125746,8.06121557 C5.32304489,7.83668884 5.30840184,7.55847092 5.15709035,7.34858723 L3.94171735,5.64023162 C3.90755024,5.59142146 3.91243126,5.51820622 3.9563604,5.47427707 L5.41090318,4.01973429 C5.44507029,3.98556718 5.47923741,3.98068616 5.50364249,3.98068616 C5.53292858,3.98068616 5.55733366,3.9904482 5.57685773,4.00509124 L7.26080826,5.20582119 C7.47557297,5.35713269 7.7586719,5.36689472 7.98319864,5.23510729 C8.61773072,4.85438803 9.30595398,4.56152707 10.0234633,4.37604846 C10.2723952,4.30771424 10.4627548,4.10271156 10.5066839,3.84889873 L10.8581171,1.78422894 C10.8678791,1.72077574 10.9215703,1.67684659 10.9850235,1.67684659 L13.0399313,1.67684659 C13.1033845,1.67684659 13.1570756,1.72077574 13.1668377,1.78422894 L13.5085088,3.81961263 C13.5524379,4.07830648 13.7427976,4.28819017 13.9966104,4.35164338 C14.7336438,4.53712199 15.4365101,4.82510194 16.0905663,5.21070221 C16.315093,5.34248964 16.5933109,5.33272761 16.8080756,5.18141611 L18.4920262,3.97092413 C18.5164313,3.95628108 18.5408363,3.94651905 18.5652414,3.94651905 C18.5847655,3.94651905 18.6238136,3.95140007 18.6579807,3.98556718 L20.1125235,5.44010996 C20.1564526,5.4840391 20.1613337,5.55237333 20.1271666,5.60606451 L18.9215556,7.29977707 C18.7702441,7.50966076 18.7604821,7.79275969 18.8922695,8.01728643 C19.2729887,8.65669953 19.5560877,9.34492279 19.7415663,10.0624322 C19.8050195,10.316245 20.0149032,10.5066046 20.268716,10.5456527 L22.3187428,10.8922049 C22.382196,10.9019669 22.4261251,10.9556581 22.4261251,11.0191113 L22.4261251,13.0740191 L22.4212441,13.0740191 L22.4212441,13.0740191 Z" id="Shape"></path>
                    <path d="M11.9949896,6.81424635 C9.13903967,6.81424635 6.81920668,9.13407933 6.81920668,11.9900292 C6.81920668,14.8459791 9.13903967,17.1658121 11.9949896,17.1658121 C14.8509395,17.1658121 17.1707724,14.8459791 17.1707724,11.9900292 C17.1707724,9.13407933 14.8509395,6.81424635 11.9949896,6.81424635 Z M11.9133301,15.3876953 C10.0550152,15.3876953 8.54541016,13.8780903 8.54541016,12.0197754 C8.54541016,10.1614605 10.0550152,8.65185547 11.9133301,8.65185547 C13.771645,8.65185547 15.28125,10.1614605 15.28125,12.0197754 C15.28125,13.8780903 13.771645,15.3876953 11.9133301,15.3876953 Z" id="Shape"></path>
                </g>
            </g>
        </g>
    </g>
</svg>
