<svg width="1200px" height="426px" viewBox="0 0 1200 426" version="1.1" xmlns="http://www.w3.org/2000/svg" xmlns:xlink="http://www.w3.org/1999/xlink">
    <desc>Nylas Logo</desc>
    <defs>
        <linearGradient x1="0%" y1="0%" x2="100%" y2="100%" id="linearGradient-1">
            <stop stop-color="#7EDC90" offset="0%"></stop>
            <stop stop-color="#25A5A5" offset="100%"></stop>
        </linearGradient>
    </defs>
    <g id="Page-1" stroke="none" stroke-width="1" fill="none" fill-rule="evenodd">
        <g id="Nylas-logo">
            <g id="Glyph" fill="url(#linearGradient-1)">
                <path d="M0,100.335615 L190.572515,219.152794 L190.572515,306.718421 L0,187.901242 L0,100.335615 Z M47.2792832,10.3223286 L190.572515,98.7444716 L190.572515,186.310099 L6.03703259e-15,67.4929206 L-7.56958508e-16,36.7038551 L-1.42108547e-14,36.7038551 C-1.63075513e-14,19.5830278 13.8791728,5.70385508 31,5.70385508 C36.7497292,5.70385508 42.386166,7.30292635 47.2792832,10.3223286 L47.2792832,10.3223286 Z M361.659458,410.379276 L219.891364,322.898252 L219.891364,235.332624 L410.463879,354.149803 L410.463879,383.146732 C410.463879,400.819844 396.136991,415.146732 378.463879,415.146732 C372.528675,415.146732 366.710417,413.496078 361.659458,410.379276 L361.659458,410.379276 Z M219.891364,118.578454 L410.463879,237.395633 L410.463879,324.96126 L219.891364,206.144081 L219.891364,118.578454 Z M219.891364,0 L410.463879,118.817179 L410.463879,206.382806 L219.891364,87.5656275 L219.891364,0 Z M0,218.914069 L190.572515,337.731247 L190.572515,425.296875 L0,306.479696 L0,218.914069 Z" id="Combined-Shape"></path>
            </g>
        </g>
    </g>
</svg>